<head>
   <link rel="stylesheet" href="styles.css">
   </head>

<svg xmlns="http://www.w3.org/2000/svg" version="1.1" viewBox="-5.0 -10.0 110.0 135.0">

 </style>
 <g class="svg1">


  <path d="m42.914 54c-0.76562 0-1.5117-0.25-2.1289-0.70703-1.0586-0.77734-1.5859-2.0898-1.3555-3.3828l1.0273-5.7734-4.3594-4.1016c-0.97656-0.90234-1.3398-2.2891-0.9375-3.5586 0.41406-1.293 1.5352-2.2344 2.8789-2.4102l6.0898-0.85156 2.7109-5.3008c0.61328-1.1797 1.832-1.918 3.1602-1.918s2.5469 0.73828 3.1602 1.918l2.7109 5.3008 6.0898 0.85156h-0.003907c1.3477 0.17578 2.4688 1.1172 2.8828 2.4102 0.40234 1.2695 0.039062 2.6562-0.9375 3.5586l-4.3594 4.1016 1.0273 5.7734h-0.003906c0.23438 1.293-0.29297 2.6055-1.3516 3.3828-1.0898 0.8125-2.5469 0.9375-3.7539 0.31641l-5.4609-2.7695-5.4609 2.7695c-0.50391 0.25781-1.0625 0.39062-1.625 0.39062zm-3.2695-16.121 3.7617 3.5391v0.003906c0.85547 0.79297 1.2461 1.9688 1.043 3.1211l-0.89844 5.0859 4.8359-2.4531h-0.003907c1.0195-0.51562 2.2227-0.51562 3.2422 0l4.8359 2.4492-0.89844-5.0859h-0.003906c-0.20312-1.1484 0.1875-2.3242 1.043-3.1211l3.7617-3.5391-5.2695-0.73828c-1.1406-0.15625-2.1328-0.85938-2.6602-1.8828l-2.4336-4.7383-2.4258 4.7422c-0.52734 1.0234-1.5195 1.7227-2.6602 1.8789z"/>
  <path d="m50 77c-9.5508 0.003906-18.711-3.7852-25.461-10.539-6.7539-6.75-10.543-15.91-10.539-25.461 0-8.6016 3.082-16.918 8.6836-23.441 5.6055-6.5273 13.359-10.832 21.859-12.137 8.5-1.3008 17.188 0.48047 24.488 5.0273s12.734 11.559 15.312 19.762c2.5781 8.207 2.1367 17.062-1.25 24.969s-9.4922 14.34-17.211 18.133c-4.9375 2.4414-10.375 3.7031-15.883 3.6875zm0-68c-9.707 0-18.891 4.4102-24.965 11.984-6.0742 7.5742-8.3789 17.496-6.2695 26.973 2.1094 9.4766 8.4062 17.484 17.117 21.77 9.918 4.875 21.652 4.2891 31.035-1.5586 9.3828-5.8438 15.086-16.113 15.082-27.168-0.007812-8.4844-3.3828-16.617-9.3828-22.617s-14.133-9.375-22.617-9.3828z"/>
  <path d="m67 94.953-17-6.8008-17 6.8008v-26.652l2.8867 1.4258v-0.003906c8.9023 4.3672 19.324 4.3672 28.227 0l2.8867-1.4219zm-17-11.105 13 5.1992v-14.461c-8.3672 3.2188-17.633 3.2188-26 0v14.461z"/>
  <path d="m50 67c-6.8984 0.003906-13.512-2.7344-18.391-7.6094-4.875-4.8789-7.6133-11.492-7.6094-18.391 0-6.2109 2.2266-12.219 6.2734-16.93 4.0469-4.7148 9.6445-7.8242 15.785-8.7656 6.1406-0.94141 12.414 0.34766 17.688 3.6328 5.2734 3.2812 9.1953 8.3438 11.059 14.27 1.8633 5.9258 1.543 12.324-0.90625 18.035-2.4453 5.7109-6.8516 10.355-12.426 13.098-3.5664 1.7617-7.4961 2.6719-11.473 2.6602zm0-48c-6.6758 0-12.992 3.0273-17.168 8.2383-4.1797 5.207-5.7617 12.031-4.3125 18.547 1.4531 6.5156 5.7852 12.023 11.781 14.965 6.8203 3.3477 14.883 2.9414 21.332-1.0742 6.4492-4.0195 10.367-11.078 10.367-18.676-0.007812-5.832-2.3281-11.426-6.4492-15.551-4.125-4.1211-9.7188-6.4414-15.551-6.4492z"/>
 

 </g>

</svg>